<svg xmlns="http://www.w3.org/2000/svg" xmlns:xlink="http://www.w3.org/1999/xlink" version="1.1"
     width="3146.3414634146343"
     height="1617.0731707317073" viewBox="0 0 3146.3414634146343 1617.0731707317073">

    <g transform="scale(7.317073170731708) translate(10, 10)">
        <defs id="SvgjsDefs5051"></defs>
        <g id="SvgjsG5052" featureKey="rootContainer" transform="matrix(1,0,0,1,0,0)" fill="#ffd8d8">
            <rect xmlns="http://www.w3.org/2000/svg" width="410" height="201" rx="10" ry="10"></rect>
        </g>
        <g id="SvgjsG5053" featureKey="symbolFeature-0"
           transform="matrix(1.4197812577502118,0,0,1.4197812577502118,255.7524920060738,35.15571373558682)"
           fill="#302939">
            <path xmlns="http://www.w3.org/2000/svg" fill="#302939"
                  d="M24.964,36.961c-0.415-0.755-0.771-1.403-1.04-2.172c5.838-0.01,29.562-0.047,33.032-0.047  c2.373,0,3.616-1.819,3.616-3.616c0-1.003-0.369-1.947-1.036-2.653c-0.526-0.557-1.481-1.219-3.049-1.219H41.218  c0.301-0.66,0.46-1.417,0.46-2.164c0-1.663-0.736-2.911-1.923-3.418c0.344-0.617,0.528-1.364,0.528-2.154  c0-1.919-1.17-3.961-3.34-3.961h-0.543c0.215-0.52,0.336-1.118,0.336-1.764c0-1.032-0.324-1.997-0.914-2.715  c-0.495-0.606-1.411-1.327-2.965-1.327H16.578c-5.188,0-10.769,3.878-10.769,12.39c0,9.715,2.317,11.61,6.756,14.371  c0.794,0.493,1.655,1.029,2.581,1.681c4.46,3.15,4.681,4.611,5.273,8.522c0.103,0.675,0.213,1.413,0.359,2.23  c0.474,2.686,1.809,3.088,2.562,3.088c0.858,0,1.712-0.512,2.469-1.483c1.298-1.663,2.277-4.667,1.535-7.633  C26.6,39.942,25.694,38.291,24.964,36.961z M24.242,49.328c-0.46,0.588-0.807,0.718-0.903,0.718c-0.054,0-0.398-0.266-0.605-1.446  c-0.142-0.8-0.25-1.522-0.349-2.182c-0.608-4.006-0.941-6.21-6.094-9.847c-0.961-0.679-1.853-1.234-2.676-1.747  c-3.874-2.409-5.818-3.62-5.818-12.683c0-7.187,4.411-10.403,8.782-10.403h16.277c0.623,0,1.104,0.202,1.429,0.598  c0.295,0.361,0.464,0.891,0.464,1.458c0,0.873-0.41,1.776-1.095,1.776c-2.742,0-4.537,0.05-4.537,0.05  c-0.547,0.016-0.978,0.47-0.967,1.015c0.012,0.542,0.454,0.972,0.994,0.972h0.014c0,0,4.361-0.062,7.786-0.062  c0.994,0,1.353,1.18,1.353,1.974c0,0.53-0.14,1.023-0.382,1.353c-0.235,0.318-0.551,0.472-0.97,0.472  c-2.447,0-6.637,0.052-6.637,0.052c-0.545,0.008-0.984,0.452-0.982,0.998c0.002,0.543,0.442,0.986,0.988,0.99  c0,0,4.937,0.031,8.182,0.031c1.081,0,1.197,1.172,1.197,1.677c0,0.588-0.161,1.196-0.431,1.623  c-0.227,0.359-0.485,0.541-0.767,0.541h-7.189c-0.549,0-0.994,0.444-0.994,0.994c0,0.549,0.444,0.994,0.994,0.994h25.181  c0.681,0,1.236,0.206,1.605,0.596c0.312,0.332,0.493,0.802,0.493,1.289c0,0.751-0.427,1.628-1.628,1.628  c-3.963,0-34.332,0.049-34.332,0.049c-0.297,0-0.578,0.134-0.767,0.365c-0.188,0.229-0.264,0.532-0.206,0.823  c0.334,1.671,0.935,2.767,1.57,3.926c0.71,1.291,1.514,2.756,2.193,5.481C25.966,45.6,25.242,48.047,24.242,49.328z M87.676,62.57  c-0.794-0.495-1.655-1.031-2.581-1.683c-4.46-3.15-4.681-4.613-5.273-8.526c-0.101-0.674-0.213-1.409-0.357-2.224  c-0.474-2.686-1.809-3.088-2.562-3.088c-0.86,0-1.714,0.512-2.471,1.483c-1.296,1.661-2.275,4.666-1.535,7.631  c0.741,2.965,1.638,4.634,2.356,5.976c0.413,0.772,0.769,1.432,1.038,2.214l-33.007-0.016c-2.374,0-3.616,1.819-3.616,3.616  c0,1.003,0.369,1.947,1.036,2.653c0.526,0.557,1.481,1.219,3.049,1.219h15.268c-0.293,0.652-0.458,1.413-0.458,2.166  c0,1.661,0.736,2.909,1.921,3.416c-0.341,0.617-0.528,1.366-0.528,2.154c0,1.921,1.17,3.963,3.342,3.963h0.542  c-0.214,0.52-0.334,1.118-0.334,1.762c0,1.033,0.324,1.997,0.912,2.717c0.495,0.605,1.411,1.327,2.967,1.327h16.275  c5.188,0,10.771-3.878,10.771-12.39C94.434,67.224,92.117,65.329,87.676,62.57z M83.663,87.344H67.388  c-0.623,0-1.104-0.202-1.428-0.598c-0.295-0.361-0.464-0.893-0.464-1.46c0-0.873,0.408-1.776,1.093-1.776  c2.742,0,4.537-0.049,4.537-0.049c0.545-0.016,0.978-0.468,0.967-1.015c-0.012-0.541-0.454-0.972-0.994-0.972h-0.014  c0,0-4.361,0.062-7.784,0.062c-0.994,0-1.355-1.182-1.355-1.976c0-0.528,0.14-1.021,0.384-1.353c0.233-0.316,0.551-0.472,0.97-0.472  c2.447,0,6.636-0.05,6.636-0.05c0.545-0.006,0.984-0.452,0.982-0.996c-0.002-0.545-0.442-0.988-0.988-0.992  c0,0-4.937-0.031-8.18-0.031c-1.081,0-1.197-1.172-1.197-1.677c0-1.023,0.512-2.166,1.197-2.166h7.189  c0.549,0,0.994-0.444,0.994-0.994c0-0.549-0.445-0.994-0.994-0.994H43.755c-0.681,0-1.236-0.206-1.605-0.596  c-0.312-0.332-0.493-0.802-0.493-1.289c0-0.751,0.427-1.628,1.628-1.628l34.303,0.016c0.297,0,0.58-0.134,0.769-0.363  c0.188-0.231,0.264-0.534,0.206-0.825c-0.334-1.671-0.928-2.779-1.556-3.953c-0.703-1.308-1.498-2.793-2.18-5.518  c-0.551-2.201,0.175-4.648,1.172-5.927c0.46-0.59,0.809-0.718,0.904-0.718c0.054,0,0.396,0.266,0.605,1.446  c0.14,0.798,0.248,1.518,0.349,2.178c0.605,4.006,0.939,6.212,6.092,9.849c0.961,0.679,1.853,1.234,2.676,1.747  c3.876,2.41,5.82,3.619,5.82,12.685C92.447,84.128,88.035,87.344,83.663,87.344z"></path>
        </g>
        <g id="SvgjsG5054" featureKey="nameFeature-0"
           transform="matrix(2.6162480626261826,0,0,2.6162480626261826,10.16290730947604,-15.580972154686933)"
           fill="#302939">
            <path d="M4.08 40 c-0.2 0 -0.32 -0.16 -0.32 -0.36 l0 -25.68 c0 -0.2 0.12 -0.36 0.32 -0.36 l13.6 0 c0.2 0 0.36 0.16 0.36 0.36 l0 4.28 c0 0.2 -0.16 0.36 -0.36 0.36 l-8.64 0 l0 5.44 l6.72 0 c0.2 0 0.32 0.16 0.32 0.36 l0 4.36 c0 0.2 -0.12 0.36 -0.32 0.36 l-6.72 0 l0 5.88 l8.64 0 c0.2 0 0.36 0.16 0.36 0.36 l0 4.28 c0 0.2 -0.16 0.36 -0.36 0.36 l-13.6 0 z M6.08 16.12 l0 21.28 c0 0.24 0.16 0.32 0.32 0.32 l9.2 0 c0.36 0 0.28 -0.48 0 -0.48 l-9 0 l0 -10.44 l7.36 0 c0.24 0 0.24 -0.56 0 -0.56 l-7.36 0 l0 -9.92 l9 0 c0.28 0 0.36 -0.52 0 -0.52 l-9.2 0 c-0.16 0 -0.32 0.12 -0.32 0.32 z M31.24 35 l9.4 0 c0.2 0 0.36 0.16 0.36 0.36 l0 4.28 c0 0.2 -0.16 0.36 -0.36 0.36 l-15.44 0 c-0.16 0 -0.36 -0.08 -0.36 -0.36 l0 -4.44 s0 -0.04 0.04 -0.16 l9.64 -16.44 l-9.44 0 c-0.2 0 -0.36 -0.16 -0.36 -0.36 l0 -4.28 c0 -0.2 0.16 -0.36 0.36 -0.36 l15.56 0 c0.24 0 0.28 0.24 0.28 0.32 l0 4.48 c0 0.04 0 0.12 -0.04 0.16 z M27.32 15.8 c-0.28 0 -0.24 0.52 0 0.52 l10.8 0 c0.28 0 0.32 0.08 0.2 0.28 l-11.52 20.12 c-0.2 0.4 0 1.04 0.6 1.04 l10.92 0 c0.32 0 0.32 -0.52 0 -0.52 l-10.92 0 c-0.16 0 -0.2 -0.12 -0.16 -0.28 l11.48 -20.16 c0.4 -0.68 0.08 -1 -0.4 -1 l-11 0 z M54.84 35 l9.4 0 c0.2 0 0.36 0.16 0.36 0.36 l0 4.28 c0 0.2 -0.16 0.36 -0.36 0.36 l-15.44 0 c-0.16 0 -0.36 -0.08 -0.36 -0.36 l0 -4.44 s0 -0.04 0.04 -0.16 l9.64 -16.44 l-9.44 0 c-0.2 0 -0.36 -0.16 -0.36 -0.36 l0 -4.28 c0 -0.2 0.16 -0.36 0.36 -0.36 l15.56 0 c0.24 0 0.28 0.24 0.28 0.32 l0 4.48 c0 0.04 0 0.12 -0.04 0.16 z M50.92 15.8 c-0.28 0 -0.24 0.52 0 0.52 l10.8 0 c0.28 0 0.32 0.08 0.2 0.28 l-11.52 20.12 c-0.2 0.4 0 1.04 0.6 1.04 l10.92 0 c0.32 0 0.32 -0.52 0 -0.52 l-10.92 0 c-0.16 0 -0.2 -0.12 -0.16 -0.28 l11.48 -20.16 c0.4 -0.68 0.08 -1 -0.4 -1 l-11 0 z M77.00000000000001 13.84 c0.04 -0.12 0.12 -0.24 0.28 -0.24 l4.96 0 c0.16 0 0.24 0.12 0.28 0.24 l6.92 25.72 c0.04 0.24 -0.12 0.44 -0.36 0.44 l-4.56 0 c-0.12 0 -0.24 -0.08 -0.28 -0.24 l-1.56 -5.6 l-5.84 0 l-1.52 5.6 c-0.04 0.16 -0.12 0.24 -0.28 0.24 l-4.6 0 c-0.24 0 -0.4 -0.2 -0.36 -0.44 z M78.12 29.2 l3.32 0 l-1.72 -6.04 z M84.28 31.560000000000002 l1.84 6 c0.08 0.24 0.52 0.2 0.4 -0.12 l-6.4 -21.28 c-0.12 -0.52 -0.8 -0.56 -0.92 0 l-6.2 21.28 c-0.12 0.28 0.32 0.4 0.44 0.16 l1.76 -6.04 l9.08 0 z M75.32000000000001 31.04 l4.36 -14.72 l4.44 14.72 l-8.8 0 z"></path>
        </g>
        <g id="SvgjsG5055" featureKey="sloganFeature-0"
           transform="matrix(5.094911679150337,0,0,5.094911679150337,125.62536294766316,74.35460203944363)"
           fill="#302939">
            <path d="M5.1 17.5 l4.7 0 c0.1 0 0.18 0.08 0.18 0.18 l0 2.14 c0 0.1 -0.08 0.18 -0.18 0.18 l-7.72 0 c-0.08 0 -0.18 -0.04 -0.18 -0.18 l0 -2.22 s0 -0.02 0.02 -0.08 l4.82 -8.22 l-4.72 0 c-0.1 0 -0.18 -0.08 -0.18 -0.18 l0 -2.14 c0 -0.1 0.08 -0.18 0.18 -0.18 l7.78 0 c0.12 0 0.14 0.12 0.14 0.16 l0 2.24 c0 0.02 0 0.06 -0.02 0.08 z M8.9 13.379999999999999 l-0.22 0.38 l-0.68 -0.7 l0.2 -0.36 z M8.48 14.1 l-0.2 0.36 l-0.7 -0.68 l0.22 -0.38 z M7.64 15.5 l-0.22 0.38 l-0.68 -0.7 l0.2 -0.36 z M6.62 17.259999999999998 l-0.04 0 l-0.66 -0.66 l0.2 -0.34 l0.7 0.66 z M9.64 10.22 l0.24 -0.34 l0.66 0.68 l-0.2 0.34 z M9.72 11.98 l-0.22 0.34 l-0.68 -0.66 l0.2 -0.36 z M10.2 9.2 l0 -0.12 l0.62 0.62 l0 0.38 c0 0.02 0 0.04 -0.02 0.08 l-0.06 0.04 l-0.66 -0.68 l0.04 -0.1 c0.08 -0.1 0.08 -0.16 0.08 -0.22 z M7.22 16.22 l-0.2 0.36 l-0.68 -0.7 l0.2 -0.36 z M10.12 11.28 l-0.2 0.34 l-0.68 -0.7 l0.2 -0.34 z M8.04 14.8 l-0.2 0.36 l-0.66 -0.68 l0.2 -0.36 z M9.3 12.68 l-0.2 0.34 l-0.68 -0.66 l0.2 -0.36 z M9.8 20.26 c0.1 0 0.2 -0.04 0.24 -0.08 l0.7 0.68 c-0.02 0.02 -0.04 0.02 -0.06 0.02 l-0.48 0 l-0.62 -0.62 l0.22 0 z M4.52 20.26 l0.62 0.6 l0 0.02 l-0.56 0 l-0.6 -0.62 l0.54 0 z M8.44 20.26 l0.58 0 l0.62 0.62 l-0.56 0 z M7.32 20.26 l0.58 0 l0.62 0.62 l-0.58 0 z M10.22 19.78 l0 -0.58 l0.62 0.62 l0 0.58 z M10.22 18.66 l0 -0.56 l0.62 0.6 l0 0.58 z M4.5 9.56 l0.54 0 l0.64 0.62 l-0.58 0 z M10.2 8.52 l0 -0.54 l0.62 0.6 l0 0.58 z M6.22 20.26 l0.56 0 l0.62 0.62 l-0.58 0 z M5.64 20.26 l0.64 0.62 l-0.58 0 l-0.28 -0.3 l-0.32 -0.32 l0.54 0 z M2.88 10.18 l-0.64 -0.62 l0.56 0 l0.62 0.62 l-0.54 0 z M4.54 10.18 l-0.54 0 l-0.62 -0.62 l0.54 0 z M2.84 20.26 l0.56 0 l0.62 0.62 l-0.54 0 z M10.82 7.82 l0 0.2 l-0.62 -0.62 l0 -0.24 l0.58 0.54 c0.04 0.02 0.04 0.1 0.04 0.12 z M6.28 9.66 l-0.24 0.34 l-0.42 -0.44 l0.56 0 z M5.72 16.96 l0.3 0.3 l-0.5 0 z M2.24 20.26 l0.04 0 l0.62 0.62 l-0.1 -0.06 c-0.02 -0.04 -0.32 -0.32 -0.56 -0.56 z M16.18 6.92 c0.02 -0.06 0.06 -0.12 0.14 -0.12 l2.48 0 c0.08 0 0.12 0.06 0.14 0.12 l3.46 12.86 c0.02 0.12 -0.06 0.22 -0.18 0.22 l-2.28 0 c-0.06 0 -0.12 -0.04 -0.14 -0.12 l-0.78 -2.8 l-2.92 0 l-0.76 2.8 c-0.02 0.08 -0.06 0.12 -0.14 0.12 l-2.3 0 c-0.12 0 -0.2 -0.1 -0.18 -0.22 z M16.740000000000002 14.6 l1.66 0 l-0.86 -3.02 z M15.32 20.22 c0.16 -0.04 0.26 -0.14 0.28 -0.26 l0.68 0.64 l-0.06 0.16 c-0.02 0.06 -0.08 0.12 -0.14 0.12 l-0.1 0 z M23.22 20.82 c-0.02 0.04 -0.08 0.06 -0.12 0.06 l-0.4 0 l-0.62 -0.62 l0.14 0 c0.12 0 0.22 -0.06 0.3 -0.14 z M15.72 19.5 l0.12 -0.44 l0.66 0.66 l-0.12 0.44 z M15.940000000000001 18.6 l0.14 -0.42 l0.64 0.64 l-0.1 0.46 z M16.3 17.32 l0.1 0 l0.58 0.6 l-0.14 0.46 l-0.64 -0.66 z M20.94 20.26 l0.58 0 l0.62 0.62 l-0.56 0 z M17.52 17.96 l-0.6 -0.64 l0.56 0 l0.62 0.64 l-0.58 0 z M14.22 20.26 l0.58 0 l0.6 0.62 l-0.56 0 z M14.280000000000001 20.88 l-0.48 0 c-0.02 0 -0.08 -0.02 -0.1 -0.06 l-0.6 -0.56 l0.58 0 z M19 17.96 l-0.36 0 l-0.6 -0.64 l0.56 0 l0.32 0.34 z M21.1 12.52 l-0.52 -0.5 l-0.2 -0.76 l0.52 0.5 z M22.32 17.12 l-0.52 -0.52 l-0.2 -0.74 l0.52 0.5 z M22.72 18.66 l-0.5 -0.5 l-0.2 -0.78 l0.5 0.5 z M21.92 15.6 l-0.52 -0.52 l-0.2 -0.78 l0.5 0.52 z M19.54 8.18 l0.54 0.52 l0.2 0.78 l-0.5 -0.52 z M23.14 20.18 l-0.52 -0.5 l-0.2 -0.78 l0.5 0.52 z M21.5 14.059999999999999 l-0.5 -0.5 l-0.22 -0.78 l0.52 0.52 z M20.68 11 l-0.5 -0.52 l-0.2 -0.76 l0.5 0.5 z M17.12 14.18 l0.12 -0.46 l0.64 0.64 l-0.58 0 z M17.72 13.08 l0.22 0.78 l-0.56 -0.58 l0.1 -0.42 z M20.14 20.26 l0.26 0 l0.62 0.62 l-0.2 0 c-0.04 0 -0.1 -0.02 -0.12 -0.06 z M19.34 7.42 l-0.04 -0.2 l0.44 0.46 c0.04 0.02 0.08 0.08 0.08 0.12 l0.06 0.12 z"></path>
        </g>
    </g>
</svg>
